<?xml version="1.0" encoding="UTF-8" standalone="no"?>
<svg
   id="svg"
   viewBox="0 0 24 24"
   width="24"
   height="24"
   version="1.1"
   xmlns="http://www.w3.org/2000/svg"
   xmlns:svg="http://www.w3.org/2000/svg">
  <defs
     id="defs7" />
  <g
     id="svgg">
    <path
       id="path0"
       d="M 11.179,0.365 C 6.426,1.398 4.107,7.302 6.967,11.089 l 0.415,0.550 -0.241,0.110 c -0.132,0.060 -0.399,0.247 -0.592,0.416 -0.193,0.168 -0.492,0.379 -0.664,0.467 -0.333,0.172 -1.516,1.014 -2.162,1.541 -0.517,0.422 -0.520,0.746 -0.010,1.181 0.325,0.276 0.992,0.870 2.235,1.991 0.632,0.570 0.836,1.112 0.651,1.733 -0.321,1.079 -0.070,2.394 0.657,3.447 0.298,0.431 0.247,0.610 -0.347,1.214 -0.315,0.320 -0.321,0.780 -0.013,0.996 0.272,0.190 4.961,0.242 5.439,0.061 0.172,-0.066 0.361,-0.066 0.531,-0.001 0.332,0.126 5.408,-0.068 5.687,-0.217 0.335,-0.179 0.255,-0.759 -0.169,-1.228 l -0.364,-0.403 0.289,-0.405 c 0.469,-0.656 0.580,-1.153 0.517,-2.306 -0.055,-1.004 -0.051,-1.031 0.245,-1.436 0.478,-0.656 0.624,-1.044 0.555,-1.480 -0.060,-0.379 0.130,-1.119 0.802,-3.125 0.135,-0.403 0.192,-0.755 0.149,-0.925 -0.072,-0.287 -1.609,-1.977 -2.000,-2.199 l -0.227,-0.129 0.447,-1.017 C 21.072,4.752 16.630,-0.820 11.179,0.365 m 2.860,1.128 c 2.762,0.717 4.710,3.480 4.303,6.104 -0.491,3.168 -3.045,5.285 -6.107,5.065 -1.097,-0.079 -1.212,-0.013 -1.392,0.790 -0.126,0.564 -0.529,1.703 -0.893,2.526 l -0.258,0.583 -0.470,-0.229 c -0.557,-0.271 -0.548,-0.199 -0.165,-1.206 1.112,-2.925 1.101,-2.797 0.303,-3.435 C 6.819,9.661 6.178,6.856 7.651,4.221 8.508,2.689 9.521,1.899 11.198,1.455 c 0.985,-0.261 1.726,-0.251 2.841,0.039 m 0.598,2.279 c -1.514,0.323 -2.026,2.070 -0.968,3.302 0.689,0.802 1.791,0.814 2.617,0.030 1.399,-1.329 0.212,-3.728 -1.649,-3.331 m -4.987,0.184 c -2.279,0.718 -1.781,3.990 0.583,3.828 1.141,-0.078 1.747,-0.716 1.747,-1.838 0.000,-1.354 -1.171,-2.354 -2.330,-1.990 m 5.802,0.352 c 1.031,0.431 1.306,1.663 0.543,2.427 -0.441,0.441 -0.535,0.437 -0.611,-0.026 -0.119,-0.737 -1.425,-1.011 -1.425,-0.299 0.000,0.407 -0.372,-0.099 -0.424,-0.577 -0.109,-1.002 1.020,-1.899 1.917,-1.525 m -4.649,0.270 c 0.621,0.379 0.911,1.161 0.657,1.774 -0.160,0.387 -0.262,0.396 -0.438,0.035 -0.375,-0.769 -1.438,-0.482 -1.438,0.388 v 8.474 l -0.314,-0.224 C 7.779,6.021 9.243,3.629 10.802,4.579 m 6.844,7.406 c 1.379,0.516 1.683,1.600 1.043,3.726 -0.264,0.875 -0.772,0.804 -0.772,-0.108 0.000,-0.483 -0.250,-1.123 -0.437,-1.121 -0.330,0.004 -0.708,0.607 -0.708,1.128 0.000,0.236 -0.057,0.321 -0.248,0.368 -0.344,0.086 -0.601,0.522 -0.677,1.149 l -0.065,0.529 -0.625,0.257 c -1.379,0.568 -3.524,0.288 -4.383,-0.571 -0.565,-0.565 -0.565,-0.527 -0.003,-2.244 0.695,-2.127 0.494,-1.920 1.865,-1.923 1.310,-0.003 2.483,-0.326 3.198,-0.880 0.776,-0.601 0.954,-0.631 1.813,-0.310 M 9.249,12.812 c 0.020,0.317 -0.053,0.671 -0.227,1.094 l -0.257,0.625 -0.568,-0.026 c -0.890,-0.041 -1.541,0.708 -1.101,1.267 0.121,0.154 0.203,0.289 0.182,0.300 -0.021,0.011 -0.164,0.132 -0.319,0.268 l -0.281,0.247 -0.500,-0.369 C 4.767,15.178 4.691,14.811 5.729,14.042 8.210,12.204 9.188,11.862 9.249,12.812 m 8.470,3.884 c 0.768,0.517 0.726,1.197 -0.088,1.423 -0.926,0.257 -1.173,0.091 -1.173,-0.786 0.000,-0.853 0.537,-1.123 1.261,-0.636 m -8.749,0.465 c 0.889,0.451 1.032,0.706 0.458,0.814 -1.193,0.224 -2.439,-0.470 -1.868,-1.041 0.251,-0.251 0.571,-0.199 1.411,0.227 m 7.437,1.546 c 0.192,0.126 0.378,0.154 0.691,0.104 0.408,-0.065 0.425,-0.057 0.364,0.169 -0.035,0.131 -0.064,0.594 -0.065,1.030 -0.002,0.998 -0.188,1.303 -1.226,2.012 -1.161,0.793 -1.829,0.503 -2.896,-1.257 -0.520,-0.857 -0.129,-2.328 0.618,-2.328 0.185,0.000 0.709,-0.112 1.164,-0.249 l 0.828,-0.249 0.129,0.298 c 0.071,0.164 0.248,0.376 0.392,0.470 m -4.737,0.044 c 0.949,0.676 1.010,2.498 0.109,3.256 -1.791,1.507 -3.871,0.201 -4.141,-2.600 l -0.062,-0.644 0.978,0.053 c 0.819,0.044 1.071,0.018 1.551,-0.161 0.665,-0.248 1.123,-0.220 1.566,0.095 m 6.347,1.241 c 0.347,0.649 0.014,1.543 -0.900,2.414 -1.788,1.704 -3.770,1.378 -4.030,-0.662 -0.089,-0.703 0.119,-0.651 0.785,0.196 0.875,1.113 1.077,1.144 2.421,0.363 1.088,-0.632 1.415,-1.071 1.415,-1.903 0.000,-0.620 0.115,-0.771 0.309,-0.408 m -9.591,2.140 c 0.907,1.185 2.326,1.204 3.591,0.049 0.604,-0.552 0.625,-0.552 0.739,-0.021 0.194,0.904 -2.452,1.589 -3.920,1.014 -0.208,-0.082 -1.047,-1.379 -1.244,-1.925 l -0.094,-0.260 0.235,0.273 c 0.129,0.150 0.441,0.542 0.693,0.871" />
  </g>
</svg>
