<?xml version="1.0" encoding="UTF-8"?>
<svg id="svg" version="1.1" viewBox="0 0 24 24" xmlns="http://www.w3.org/2000/svg">
 <g id="svgg" transform="matrix(.060722 0 0 .060722 .37709 -.19803)">
  <path id="path0" d="m178.86 5.838c-76.048 16.531-113.15 110.99-67.395 171.59l6.646 8.802-3.851 1.755c-2.119 0.965-6.382 3.959-9.474 6.653s-7.871 6.056-10.621 7.471c-5.333 2.745-24.252 16.23-34.584 24.65-8.277 6.746-8.321 11.943-0.159 18.889 5.193 4.419 15.867 13.925 35.763 31.851 10.119 9.117 13.376 17.787 10.42 27.734-5.131 17.265-1.12 38.307 10.513 55.156 4.761 6.896 3.945 9.755-5.547 19.42-5.035 5.127-5.129 12.477-0.202 15.928 4.344 3.042 79.37 3.878 87.021 0.969 2.755-1.048 5.778-1.054 8.503-0.018 5.305 2.017 86.526-1.084 90.992-3.474 5.356-2.867 4.079-12.137-2.706-19.647l-5.819-6.441 4.629-6.481c7.5-10.499 9.281-18.452 8.265-36.894-0.885-16.063-0.811-16.498 3.915-22.98 7.655-10.5 9.984-16.711 8.879-23.685-0.961-6.068 2.076-17.907 12.825-50.001 2.16-6.446 3.069-12.082 2.389-14.794-1.153-4.591-25.752-31.634-32.004-35.184l-3.624-2.057 7.153-16.276c36.366-82.748-34.707-171.9-121.93-152.94m45.756 18.055c44.196 11.479 75.359 55.687 68.845 97.667-7.863 50.681-48.718 84.562-97.719 81.039-17.549-1.262-19.397-0.214-22.276 12.634-2.022 9.02-8.465 27.245-14.291 40.417l-4.127 9.331-7.525-3.656c-8.918-4.333-8.761-3.182-2.636-19.295 17.79-46.803 17.609-44.747 4.845-54.954-40.634-32.496-50.89-77.386-27.313-119.55 13.701-24.499 29.919-37.147 56.746-44.255 15.763-4.177 27.612-4.016 45.451 0.618m9.57 36.469c-24.221 5.164-32.422 33.124-15.494 52.825 11.024 12.83 28.654 13.03 41.871 0.475 22.384-21.262 3.388-59.646-26.377-53.3m-79.799 2.949c-36.463 11.481-28.491 63.839 9.325 61.242 18.256-1.253 27.953-11.454 27.953-29.406 0-21.665-18.743-37.671-37.278-31.836m92.826 5.629c16.489 6.89 20.902 26.61 8.687 38.825-7.055 7.054-8.568 6.99-9.77-0.414-1.912-11.784-22.799-16.175-22.799-4.792 0 6.507-5.957-1.587-6.789-9.226-1.746-16.03 16.312-30.392 30.671-24.393m-74.389 4.32c9.935 6.058 14.577 18.582 10.519 28.379-2.567 6.196-4.196 6.328-7.004 0.567-6.001-12.31-23.008-7.717-23.008 6.214v8.474l-5.025-3.579c-23.843-16.977-0.412-55.256 24.518-40.055m109.51 118.49c22.067 8.256 26.921 25.603 16.681 59.614-4.216 14.002-12.351 12.859-12.351-1.735 0-7.723-3.999-17.971-6.999-17.936-5.274 0.062-11.335 9.711-11.335 18.045 0 3.771-0.914 5.131-3.962 5.896-5.496 1.38-9.612 8.36-10.836 18.378l-1.035 8.472-10 4.116c-22.067 9.083-56.377 4.612-70.127-9.139-9.032-9.032-9.032-8.434-0.054-35.901 11.122-34.032 7.908-30.718 29.842-30.771 20.955-0.052 39.725-5.217 51.172-14.084 12.41-9.611 15.258-10.098 29.004-4.955m-134.36 13.251c0.325 5.067-0.855 10.744-3.638 17.5l-4.119 10-9.087-0.415c-14.241-0.65-24.651 11.333-17.615 20.278 1.938 2.464 3.251 4.627 2.917 4.808s-2.629 2.11-5.101 4.286l-4.495 3.957-8.005-5.907c-22.569-16.653-23.779-22.529-7.172-34.833 39.695-29.41 55.338-34.875 56.315-19.674m135.52 62.146c12.287 8.271 11.616 19.146-1.405 22.762-14.81 4.113-18.766 1.46-18.766-12.584 0-13.64 8.589-17.974 20.171-10.178m-139.98 7.437c14.226 7.222 16.518 11.3 7.322 13.025-19.093 3.582-39.024-7.524-29.892-16.656 4.013-4.012 9.139-3.187 22.57 3.631m118.99 24.744c3.079 2.018 6.045 2.464 11.057 1.662 6.525-1.043 6.8-0.916 5.83 2.708-0.561 2.092-1.029 9.505-1.042 16.473-0.029 15.965-3.006 20.853-19.611 32.191-18.574 12.684-29.268 8.042-46.341-20.115-8.316-13.714-2.065-37.246 9.894-37.246 2.964 0 11.347-1.793 18.629-3.984l13.24-3.983 2.068 4.768c1.138 2.623 3.962 6.01 6.276 7.526m-75.791 0.711c15.18 10.809 16.153 39.972 1.739 52.1-28.651 24.109-61.931 3.213-66.258-41.601l-0.994-10.297 15.647 0.848c13.099 0.71 17.138 0.291 24.813-2.575 10.635-3.971 17.96-3.525 25.053 1.525m101.56 19.852c5.556 10.383 0.225 24.686-14.398 38.627-28.603 27.269-60.32 22.055-64.473-10.6-1.431-11.252 1.908-10.417 12.561 3.138 14.001 17.816 17.237 18.301 38.734 5.807 17.412-10.119 22.634-17.144 22.634-30.445 0-9.919 1.832-12.338 4.942-6.527m-153.45 34.243c14.511 18.96 37.221 19.269 57.45 0.781 9.658-8.827 10.002-8.837 11.825-0.334 3.103 14.468-39.239 25.417-62.714 16.217-3.327-1.304-16.746-22.063-19.907-30.797l-1.508-4.167 3.764 4.363c2.069 2.4 7.06 8.672 11.09 13.937"/>
 </g>
</svg>
